<svg width="34" height="35" viewBox="0 0 34 35" fill="none" xmlns="http://www.w3.org/2000/svg">
<g clip-path="url(#clip0_1498_2778)">
<path d="M8.74723 23.107L22.2423 11.7833L14.7724 11.1298C14.6397 11.1205 14.5102 11.0849 14.3914 11.025C14.2726 10.9651 14.167 10.8822 14.0806 10.781C13.9942 10.6799 13.9288 10.5625 13.8883 10.4359C13.8477 10.3092 13.8328 10.1757 13.8444 10.0432C13.856 9.91066 13.8939 9.78179 13.9558 9.66407C14.0177 9.54635 14.1025 9.44215 14.2051 9.35754C14.3077 9.27293 14.4262 9.2096 14.5536 9.17126C14.6809 9.13292 14.8147 9.12033 14.947 9.13422L24.8259 9.99852C25.0905 10.0217 25.3351 10.149 25.5058 10.3525C25.6766 10.556 25.7595 10.819 25.7364 11.0836L24.8721 20.9625C24.8447 21.2237 24.7157 21.4637 24.513 21.6308C24.3104 21.7979 24.0502 21.8787 23.7885 21.8558C23.5269 21.8329 23.2847 21.7082 23.1141 21.5084C22.9435 21.3087 22.8582 21.05 22.8765 20.7879L23.5301 13.318L10.035 24.6417C9.83151 24.8125 9.56849 24.8954 9.30382 24.8723C9.03915 24.8491 8.79453 24.7218 8.62375 24.5183C8.45298 24.3147 8.37005 24.0517 8.3932 23.787C8.41636 23.5224 8.5437 23.2778 8.74723 23.107Z" fill="#218BFF"/>
</g>
<defs>
<clipPath id="clip0_1498_2778">
<rect width="24.0417" height="24.0417" fill="white" transform="matrix(-0.766044 0.642788 0.642788 0.766044 18.5464 0.5)"/>
</clipPath>
</defs>
</svg>
