<svg width="17" height="16" viewBox="0 0 17 16" fill="none" xmlns="http://www.w3.org/2000/svg">
<path d="M2.84306 13.6569C3.58051 14.3944 4.42999 14.9732 5.38215 15.3746C6.37165 15.7946 7.41715 16 8.5 16C9.58285 16 10.6284 15.7853 11.6179 15.3746C12.57 14.9732 13.4288 14.3944 14.1569 13.6569C14.8944 12.9195 15.4732 12.07 15.8746 11.1179C16.2946 10.1284 16.5 9.08285 16.5 8C16.5 6.91715 16.2853 5.87165 15.8746 4.88215C15.4732 3.92999 14.8944 3.08051 14.1663 2.34306C13.4288 1.6056 12.5793 1.02684 11.6272 0.625438C10.6377 0.205368 9.59218 0 8.50934 0C7.42649 0 6.38098 0.214703 5.39148 0.625438C4.43932 1.02684 3.58051 1.6056 2.84306 2.34306C2.1056 3.08051 1.52684 3.92999 1.12544 4.88215C0.705368 5.87165 0.5 6.91715 0.5 8C0.5 9.08285 0.714703 10.1284 1.12544 11.1179C1.53617 12.07 2.11494 12.9288 2.84306 13.6569ZM8.15461 11.0992C7.11844 11.1272 6.10093 11.2579 5.11144 11.4912C4.83139 10.5298 4.6727 9.46558 4.64469 8.35473H8.15461V11.0992ZM8.15461 11.7993V15.2719C7.28646 15.1225 6.47433 14.4131 5.83022 13.2462C5.64352 12.9102 5.4755 12.5461 5.33547 12.1634C6.25029 11.9393 7.19312 11.818 8.15461 11.7993ZM8.85473 15.2719V11.7993C9.81622 11.8273 10.759 11.9393 11.6739 12.1634C11.5338 12.5461 11.3658 12.9102 11.1791 13.2462C10.535 14.4131 9.72287 15.1225 8.85473 15.2719ZM8.85473 11.0992V8.35473H12.3646C12.3366 9.46558 12.1779 10.5391 11.8979 11.4912C10.9084 11.2485 9.8909 11.1179 8.85473 11.0992ZM13.0648 8.35473H15.7999C15.7345 9.81097 15.2398 11.1832 14.381 12.3407C13.7929 12.0793 13.1861 11.8553 12.57 11.6779C12.8687 10.6511 13.0368 9.52159 13.0648 8.35473ZM13.0648 7.64528C13.0368 6.46908 12.8687 5.34889 12.57 4.32205C13.1861 4.14469 13.7835 3.92065 14.381 3.65928C15.2398 4.8168 15.7252 6.18903 15.7999 7.64528H13.0648ZM12.3646 7.64528H8.85473V4.91015C9.8909 4.88215 10.9084 4.75146 11.8979 4.51809C12.1779 5.47025 12.3366 6.53442 12.3646 7.64528ZM8.85473 4.2007V0.728121C9.72287 0.87748 10.535 1.58693 11.1791 2.75379C11.3658 3.08985 11.5338 3.45391 11.6739 3.83664C10.759 4.06068 9.81622 4.18203 8.85473 4.2007ZM8.15461 0.728121V4.2007C7.19312 4.1727 6.25029 4.06068 5.33547 3.83664C5.4755 3.45391 5.64352 3.08985 5.83022 2.75379C6.47433 1.58693 7.28646 0.87748 8.15461 0.728121ZM8.15461 4.91015V7.65461H4.64469C4.6727 6.54376 4.83139 5.47025 5.11144 4.51809C6.10093 4.75146 7.11844 4.88215 8.15461 4.91015ZM3.94457 7.64528H1.20945C1.2748 6.18903 1.76954 4.8168 2.62835 3.65928C3.21645 3.92065 3.82322 4.14469 4.43932 4.32205C4.14061 5.34889 3.97258 6.47841 3.94457 7.64528ZM3.94457 8.35473C3.97258 9.52159 4.14061 10.6511 4.43932 11.6686C3.82322 11.846 3.22579 12.07 2.62835 12.3314C1.76954 11.1739 1.28413 9.80163 1.20945 8.34539H3.94457V8.35473ZM3.33781 13.1622C3.25379 13.0782 3.16978 12.9848 3.08576 12.9008C3.59918 12.6768 4.12194 12.4901 4.65403 12.3407C4.81272 12.7795 4.99942 13.1995 5.21412 13.5823C5.51284 14.1144 5.83956 14.5718 6.20362 14.9358C5.13944 14.5811 4.15928 13.9837 3.33781 13.1622ZM10.8057 14.9358C11.1604 14.5718 11.4965 14.1144 11.7952 13.5823C12.0099 13.1995 12.1966 12.7795 12.3553 12.3407C12.8874 12.4994 13.4102 12.6861 13.9236 12.9008C13.8396 12.9942 13.7555 13.0782 13.6715 13.1622C12.8501 13.9837 11.8699 14.5811 10.8057 14.9358ZM13.6715 2.83781C13.7555 2.92182 13.8396 3.01517 13.9236 3.09918C13.4102 3.32322 12.8874 3.50992 12.3553 3.65928C12.1966 3.22054 12.0099 2.80047 11.7952 2.41774C11.4965 1.88565 11.1698 1.42824 10.8057 1.06418C11.8699 1.4189 12.8501 2.01634 13.6715 2.83781ZM6.20362 1.06418C5.84889 1.42824 5.51284 1.88565 5.21412 2.41774C4.99942 2.80047 4.81272 3.22054 4.65403 3.65928C4.12194 3.50058 3.59918 3.31389 3.08576 3.09918C3.16978 3.00583 3.25379 2.92182 3.33781 2.83781C4.15928 2.01634 5.13944 1.4189 6.20362 1.06418Z" fill="white"/>
</svg>
