<svg width="38" height="38" viewBox="0 0 38 38" fill="none" xmlns="http://www.w3.org/2000/svg">
<path d="M18.95 0C8.54995 0 0.149902 8.39999 0.149902 18.8C0.149902 29.2 8.54995 37.6 18.95 37.6C29.35 37.6 37.7499 29.2 37.7499 18.8C37.8499 8.39999 29.35 0 18.95 0ZM33.45 26.2C33.15 27.5 32.0499 28.5 30.7499 28.9C28.3499 29.5 18.95 29.5 18.95 29.5C18.95 29.5 9.5499 29.5 7.1499 28.9C5.8499 28.6 4.84995 27.5 4.44995 26.2C3.84995 23.8 3.84985 18.9 3.84985 18.9C3.84985 18.9 3.84995 14 4.44995 11.6C4.74995 10.3 5.8499 9.29996 7.1499 8.89996C9.5499 8.29996 18.95 8.29999 18.95 8.29999C18.95 8.29999 28.3499 8.29996 30.7499 8.89996C32.0499 9.19996 33.0499 10.3 33.45 11.6C34.0499 14 34.0499 18.9 34.0499 18.9C34.0499 18.9 34.0499 23.8 33.45 26.2Z" fill="white"/>
<path d="M15.8499 23.3004L23.7499 18.9004L15.8499 14.4004V23.3004Z" fill="white"/>
</svg>
