<svg width="38" height="38" viewBox="0 0 38 38" fill="none" xmlns="http://www.w3.org/2000/svg">
<path d="M19.149 15.4004C17.249 15.4004 15.749 16.9004 15.749 18.8004C15.749 20.7004 17.249 22.2004 19.149 22.2004C21.049 22.2004 22.5491 20.7004 22.5491 18.8004C22.5491 17.0004 21.049 15.4004 19.149 15.4004Z" fill="white"/>
<path d="M19.149 0C8.74905 0 0.349121 8.39999 0.349121 18.8C0.349121 29.2 8.74905 37.6 19.149 37.6C29.549 37.6 37.9491 29.2 37.9491 18.8C37.9491 8.39999 29.549 0 19.149 0ZM29.3491 23.1C29.2491 24.2 29.1491 25 28.8491 25.6C28.5491 26.3 28.249 26.9 27.649 27.4C27.049 28 26.4491 28.3 25.8491 28.6C25.1491 28.9 24.4491 29 23.3491 29.1C22.2491 29.2 21.8491 29.2 19.0491 29.2C16.2491 29.2 15.849 29.2 14.749 29.1C13.649 29 12.849 28.9 12.249 28.6C11.549 28.3 10.9491 28 10.4491 27.4C9.8491 26.8 9.54902 26.2 9.24902 25.6C8.94902 24.9 8.84902 24.2 8.74902 23.1C8.64902 22 8.64905 21.6 8.64905 18.8C8.64905 16 8.64902 15.6 8.74902 14.5C8.84902 13.4 8.94902 12.6 9.24902 12C9.54902 11.3 9.8491 10.7 10.4491 10.2C11.0491 9.60001 11.649 9.3 12.249 9C12.949 8.7 13.649 8.6 14.749 8.5C15.849 8.4 16.2491 8.39996 19.0491 8.39996C21.8491 8.39996 22.2491 8.4 23.3491 8.5C24.4491 8.6 25.2491 8.7 25.8491 9C26.5491 9.3 27.149 9.60001 27.649 10.2C28.249 10.8 28.5491 11.4 28.8491 12C29.1491 12.7 29.2491 13.4 29.3491 14.5C29.3491 15.6 29.4491 16 29.4491 18.8C29.4491 21.7 29.4491 22 29.3491 23.1Z" fill="white"/>
<path d="M27.1492 12.7998C26.9492 12.2998 26.7492 11.9998 26.3492 11.5998C25.9492 11.1998 25.6492 10.9998 25.1492 10.7998C24.7492 10.6998 24.2491 10.4998 23.2491 10.3998C22.1491 10.3998 21.8492 10.2998 19.0492 10.2998C16.2492 10.2998 15.9492 10.2998 14.8492 10.3998C13.8492 10.3998 13.2492 10.5998 12.9492 10.7998C12.4492 10.9998 12.1491 11.1998 11.7491 11.5998C11.3491 11.9998 11.1492 12.2998 10.9492 12.7998C10.8492 13.1998 10.6492 13.6998 10.5492 14.6998C10.5492 15.7998 10.4492 16.0998 10.4492 18.8998C10.4492 21.6998 10.4492 21.9998 10.5492 23.0998C10.5492 24.0998 10.7492 24.6998 10.9492 24.9998C11.1492 25.4998 11.3491 25.7998 11.7491 26.1998C12.1491 26.5998 12.4492 26.7998 12.9492 26.9998C13.3492 27.0998 13.8492 27.2998 14.8492 27.3998C15.9492 27.3998 16.2492 27.4998 19.0492 27.4998C21.8492 27.4998 22.1491 27.4998 23.2491 27.3998C24.2491 27.3998 24.8492 27.1998 25.1492 26.9998C25.6492 26.7998 25.9492 26.5998 26.3492 26.1998C26.7492 25.7998 26.9492 25.4998 27.1492 24.9998C27.2492 24.5998 27.4492 24.0998 27.5492 23.0998C27.5492 21.9998 27.6492 21.6998 27.6492 18.8998C27.6492 16.0998 27.6492 15.7998 27.5492 14.6998C27.4492 13.6998 27.3492 13.0998 27.1492 12.7998ZM19.1492 24.1998C16.2492 24.1998 13.8492 21.7998 13.8492 18.8998C13.8492 15.9998 16.2492 13.5998 19.1492 13.5998C22.0492 13.5998 24.4492 15.9998 24.4492 18.8998C24.4492 21.7998 22.0492 24.1998 19.1492 24.1998ZM24.6492 14.5998C23.9492 14.5998 23.4492 13.9998 23.4492 13.3998C23.4492 12.6998 24.0492 12.1998 24.6492 12.1998C25.3492 12.1998 25.8492 12.7998 25.8492 13.3998C25.8492 13.9998 25.3492 14.5998 24.6492 14.5998Z" fill="white"/>
</svg>
