<svg width="74" height="62" viewBox="0 0 74 62" fill="none" xmlns="http://www.w3.org/2000/svg">
<path d="M44.4331 15.1883C40.6123 21.1691 40.5128 28.7991 44.1763 34.8775L44.7973 35.9076C44.8213 35.9478 44.7924 35.9989 44.7458 35.9989H38.6175C38.5961 35.9989 38.5765 35.9876 38.5656 35.9692L35.0534 30.0349C35.0305 29.9966 34.9753 29.9955 34.9513 30.0327L24.677 46.1185C24.6515 46.1586 24.68 46.2112 24.7277 46.2112H51.0086L60.5013 61.9591C60.5122 61.9772 60.5317 61.9884 60.5527 61.9884H73.281C73.3283 61.9884 73.3568 61.9366 73.3324 61.8965L44.5352 15.189C44.512 15.1515 44.4571 15.1511 44.4331 15.1883Z" fill="white"/>
<path d="M39.3117 61.9884C39.3512 61.6535 39.3027 61.2548 39.046 60.8385C38.4303 59.8246 37.1063 59.5971 36.9614 59.5791C35.7642 59.4203 35.0468 59.6117 34.6151 59.8156C33.6106 60.2799 33.3711 61.1479 32.0069 61.5788C31.7208 61.6651 31.4746 61.7106 31.3206 61.7301C31.3743 61.5878 31.464 61.3742 31.6018 61.1204C31.8203 60.7146 31.904 60.6914 32.0069 60.4376C32.1368 60.0885 32.1082 59.7893 32.0883 59.5276C32.0688 59.2453 32.0046 59.0141 31.9487 58.8504C32.3016 58.6289 32.6593 58.3635 33.0174 58.0501C33.3887 57.7167 33.6323 57.4367 33.9207 57.0958C34.1643 56.809 34.4256 56.4813 34.6921 56.1063C35.108 56.2354 35.7871 56.4306 36.6596 56.5939C37.6067 56.7677 37.7475 56.7144 38.7336 56.919C39.7374 57.127 40.4601 57.3638 40.8325 57.4956C41.1827 57.6206 41.4759 57.7419 41.6948 57.8353C41.8521 57.901 42.0097 57.9634 42.1674 58.0257C42.2012 58.1788 42.2699 58.3969 42.4392 58.6361C42.5173 58.7554 42.6303 58.8853 43.0886 59.239C43.8788 59.8464 43.7794 59.6451 44.5913 60.212C44.7445 60.3186 44.993 60.5037 45.1691 60.444C45.2442 60.4173 45.2798 60.3498 45.2888 60.3261C45.3647 60.15 45.1379 59.9443 44.859 59.7011C44.4273 59.3276 44.1611 59.0944 43.9603 58.9229C44.1007 58.9341 44.3244 58.9664 44.5741 59.043C45.3887 59.2975 45.5741 59.754 46.2348 60.0446C46.5104 60.1658 46.9443 60.2912 47.6163 60.2593C47.4023 60.1114 47.1838 59.9601 46.9699 59.799C46.3107 59.3182 45.7217 58.8347 45.1897 58.365C45.1897 58.365 44.8019 57.9953 44.5962 57.8815C44.3909 57.761 44.3128 57.6383 43.6949 57.5042C43.0811 57.3702 41.4594 56.4475 41.4594 56.4475C41.4594 56.4475 41.0183 56.1517 38.939 55.3476C38.2824 55.1047 37.5729 54.8614 36.8022 54.6279C35.9437 54.3663 35.1242 54.1527 34.3572 53.9804C32.7329 54.5386 31.6517 55.2368 31.0203 55.7177C30.592 56.0473 29.9118 56.5687 29.2819 57.386C28.7364 58.0985 28.7075 58.4247 28.1594 58.9064C27.6511 59.3508 27.1492 59.5336 26.198 59.8933C23.0499 61.0852 23.0026 61.5161 21.3493 61.8363C21.0681 61.8915 20.7183 61.9482 20.3035 61.9884H4.24542C0.920147 61.9884 -1.11001 58.3342 0.646106 55.5105L35.1704 0C38.9394 6.11373 38.9221 13.8345 35.1253 19.931L20.3331 43.684C18.2132 47.0881 20.6612 51.496 24.6712 51.496H49.4328L55.4674 61.9884H39.3117Z" fill="white"/>
</svg>
