<svg width="1561" height="1561" viewBox="0 0 1561 1561" fill="none" xmlns="http://www.w3.org/2000/svg">
<g filter="url(#filter0_f_2070_572)">
<circle cx="780.5" cy="780.5" r="246.5" fill="#54AEFF"/>
</g>
<g filter="url(#filter1_f_2070_572)">
<circle cx="780.4" cy="780.4" r="341.4" fill="#218BFF"/>
</g>
<g clip-path="url(#clip0_2070_572)">
<path opacity="0.111111" d="M781.635 1216.45C1093.68 1216.45 1346.63 963.491 1346.63 651.45C1346.63 339.409 1093.68 86.45 781.635 86.45C469.594 86.45 216.635 339.409 216.635 651.45C216.635 963.491 469.594 1216.45 781.635 1216.45Z" stroke="#DDF4FF"/>
<path opacity="0.222222" d="M782.104 1157.85C1061.01 1157.85 1287.1 931.757 1287.1 652.853C1287.1 373.949 1061.01 147.853 782.104 147.853C503.2 147.853 277.104 373.949 277.104 652.853C277.104 931.757 503.2 1157.85 782.104 1157.85Z" stroke="#DDF4FF"/>
<path opacity="0.333333" d="M780.073 1094.26C1024.46 1094.26 1222.57 896.142 1222.57 651.756C1222.57 407.37 1024.46 209.256 780.073 209.256C535.687 209.256 337.573 407.37 337.573 651.756C337.573 896.142 535.687 1094.26 780.073 1094.26Z" stroke="#DDF4FF"/>
<path opacity="0.444444" d="M780.543 1035.66C991.792 1035.66 1163.04 864.409 1163.04 653.16C1163.04 441.911 991.792 270.66 780.543 270.66C569.294 270.66 398.043 441.911 398.043 653.16C398.043 864.409 569.294 1035.66 780.543 1035.66Z" stroke="#DDF4FF"/>
<path opacity="0.555556" d="M781.012 977.063C959.124 977.063 1103.51 832.675 1103.51 654.563C1103.51 476.451 959.124 332.063 781.012 332.063C602.9 332.063 458.512 476.451 458.512 654.563C458.512 832.675 602.9 977.063 781.012 977.063Z" stroke="#DDF4FF"/>
<path opacity="0.666667" d="M781.481 918.466C926.456 918.466 1043.98 800.941 1043.98 655.966C1043.98 510.991 926.456 393.466 781.481 393.466C636.507 393.466 518.981 510.991 518.981 655.966C518.981 800.941 636.507 918.466 781.481 918.466Z" stroke="#DDF4FF"/>
<path opacity="0.777778" d="M779.451 854.869C889.908 854.869 979.451 765.326 979.451 654.869C979.451 544.412 889.908 454.869 779.451 454.869C668.994 454.869 579.451 544.412 579.451 654.869C579.451 765.326 668.994 854.869 779.451 854.869Z" stroke="#DDF4FF"/>
<path opacity="0.888889" d="M779.92 796.272C857.24 796.272 919.92 733.592 919.92 656.272C919.92 578.953 857.24 516.272 779.92 516.272C702.601 516.272 639.92 578.953 639.92 656.272C639.92 733.592 702.601 796.272 779.92 796.272Z" stroke="#DDF4FF"/>
<path d="M780.39 737.676C824.572 737.676 860.39 701.859 860.39 657.676C860.39 613.493 824.572 577.676 780.39 577.676C736.207 577.676 700.39 613.493 700.39 657.676C700.39 701.859 736.207 737.676 780.39 737.676Z" stroke="#DDF4FF"/>
</g>
<defs>
<filter id="filter0_f_2070_572" x="0" y="0" width="1561" height="1561" filterUnits="userSpaceOnUse" color-interpolation-filters="sRGB">
<feFlood flood-opacity="0" result="BackgroundImageFix"/>
<feBlend mode="normal" in="SourceGraphic" in2="BackgroundImageFix" result="shape"/>
<feGaussianBlur stdDeviation="267" result="effect1_foregroundBlur_2070_572"/>
</filter>
<filter id="filter1_f_2070_572" x="215" y="215" width="1130.8" height="1130.8" filterUnits="userSpaceOnUse" color-interpolation-filters="sRGB">
<feFlood flood-opacity="0" result="BackgroundImageFix"/>
<feBlend mode="normal" in="SourceGraphic" in2="BackgroundImageFix" result="shape"/>
<feGaussianBlur stdDeviation="112" result="effect1_foregroundBlur_2070_572"/>
</filter>
<clipPath id="clip0_2070_572">
<rect width="1160" height="1177" fill="white" transform="translate(199 115)"/>
</clipPath>
</defs>
</svg>
