<svg width="192" height="192" viewBox="0 0 192 192" fill="none" xmlns="http://www.w3.org/2000/svg">
<g filter="url(#filter0_dd_1937_2122)">
<rect x="6" y="2" width="180" height="180" rx="20" fill="white"/>
</g>
<path d="M96 173C137.421 173 171 139.421 171 98C171 56.5786 137.421 23 96 23C54.5786 23 21 56.5786 21 98C21 139.421 54.5786 173 96 173Z" fill="#B6E3FF"/>
<path d="M135.327 40.8443C133.966 37.7178 132.477 34.6769 130.647 31.8929C129.626 30.3511 128.52 28.8521 127.244 27.4815C124.521 24.4834 121.457 21.9565 117.756 19.3867C119.5 19.2154 120.819 19.0869 122.649 18.9156C113.033 16.2173 103.886 14.0759 94.2706 14.7611C96.2702 13.6047 98.2699 12.4912 100.738 11.0778C98.9932 10.778 98.0146 11.4204 97.0786 11.7203C86.825 14.9753 76.4013 18.0162 70.3173 28.1668C70.2747 28.2524 70.2322 28.3381 70.1896 28.3809C69.7216 29.1947 69.2536 29.2375 68.658 28.8092C68.5729 28.7236 68.4878 28.6807 68.4027 28.5951C67.2965 27.5672 67.4241 26.2395 67.339 24.8261C66.5732 25.2544 66.403 25.8968 66.1052 26.4536C65.8925 26.8819 65.935 27.61 65.2968 27.5672C64.4885 27.4815 64.8288 26.6678 64.6161 26.1966C64.1056 24.9974 65.0416 23.7553 64.7863 22.4705C61.7655 24.3978 60.9146 28.0383 62.7015 31.5075C62.9568 31.9786 63.2546 32.4926 63.595 32.9637C62.4888 32.5354 61.3826 32.6639 60.2764 32.7924C58.4895 33.0065 56.7451 33.2207 55.256 31.2933C54.6604 32.878 54.9156 34.2486 55.5113 35.6191C55.5538 35.7048 55.5538 35.7476 55.5964 35.8333C56.3197 37.418 57.7662 37.5464 59.4255 37.5893C58.1066 39.0026 56.9578 40.159 55.8517 41.3154C55.7666 42.2149 55.0433 43.1143 55.7666 44.3135C56.6175 42.8145 57.3408 41.3583 59.5531 40.5873C57.0855 44.185 56.7877 47.9112 56.0218 51.8515C57.5109 50.6095 57.1706 48.8106 58.4895 47.2687C58.064 53.736 57.8939 59.775 58.5746 65.9424C59.1702 64.3577 59.7233 62.8587 60.3615 61.0599C61.5103 63.544 61.2975 66.1137 62.4037 68.2552C63.2546 67.8697 63.1695 67.0132 63.5099 66.4135C63.9354 65.6854 63.7652 64.4006 65.1267 64.529C66.4456 64.6575 67.6369 64.9573 68.1049 66.4564C68.5303 67.7841 68.8281 69.1118 69.126 70.4395C69.3387 71.4674 69.5089 72.5382 69.7216 73.5661H70.6151C70.6576 73.8659 70.7852 74.1657 71.0405 74.3798C79.2093 81.5324 89.9309 81.0612 93.2495 73.1806C94.228 70.9963 97.9295 70.9535 99.0357 73.1806C102.397 81.1041 113.118 81.5324 121.245 74.3798C121.5 74.1657 121.628 73.8659 121.67 73.5661H122.691C122.904 72.4953 123.117 71.4674 123.287 70.3967C123.372 70.0112 123.415 69.6686 123.5 69.326C123.67 68.5122 123.925 67.6984 124.223 66.8847C124.691 65.557 125.584 64.786 127.073 64.786C128.775 64.786 128.52 66.2422 128.945 67.1845C129.328 67.9982 128.86 69.069 129.669 69.8827C132.69 62.0878 136.434 54.5069 133.881 45.5127C135.668 46.1552 135.54 47.954 136.902 48.7678C137.114 45.8125 135.88 43.4141 135.327 40.8443Z" fill="#033D8B"/>
<path d="M159.196 138.282C156.388 142.736 151.921 148.732 145.284 154.557C142.688 156.827 134.902 163.337 123.372 167.834C99.7595 177.128 78.2313 171.218 75.2956 170.361C50.6615 163.208 37.6851 145.306 33.8559 139.823C33.4305 139.267 33.1327 138.753 32.9199 138.453C53.9376 136.311 69.0839 129.373 72.913 123.077C75.1254 119.394 75.9338 116.224 75.9338 116.224C76.8698 112.627 76.8698 108.815 76.8273 104.618C76.8273 104.018 76.8273 103.504 76.8273 103.204C78.9545 108.772 86.783 112.927 96.1005 112.927C105.588 112.927 113.459 108.644 115.459 102.947C115.459 103.247 115.459 103.675 115.416 104.146C115.331 110.357 115.246 113.954 116.182 116.995C117.161 120.165 119.033 122.135 120.735 123.977C126.308 129.801 140.433 135.412 159.196 138.282Z" fill="#033D8B"/>
<path d="M122.649 73.3948C122.011 78.2345 121.202 82.3033 120.564 85.3014C120.564 85.3014 117.628 98.5785 113.076 104.66C111.927 106.159 110.608 107.316 110.608 107.316C110.608 107.316 109.545 108.258 108.353 109.029C106.354 110.314 101.801 111.941 96.0152 111.941C89.9736 111.941 85.4638 110.057 83.4641 108.9C82.4005 108.301 81.507 107.573 81.507 107.573C79.4648 105.902 78.3586 104.104 77.8906 103.247C73.4233 95.5805 70.3175 77.5492 70.3175 77.5492C70.0196 75.7076 69.7644 74.2085 69.6367 73.3948H70.5302C70.5727 73.6946 70.7004 73.9944 70.9556 74.2085C79.1245 81.3611 89.846 80.8899 93.1646 73.0093C94.1431 70.825 97.8446 70.7822 98.9508 73.0093C102.312 80.9328 113.034 81.3611 121.16 74.2085C121.415 73.9944 121.543 73.6946 121.585 73.3948H122.649Z" fill="#033D8B"/>
<path d="M129.116 75.108C129.244 76.1788 128.903 77.2495 128.265 78.2346C126.776 80.5902 124.989 82.7317 122.734 84.3592C122.394 84.6162 122.011 84.9588 121.585 84.7019C121.117 84.4449 121.373 83.9309 121.458 83.5455C122.309 79.0912 123.16 74.5941 124.053 70.1398C124.308 68.8549 124.478 66.9704 125.968 66.8848C127.414 66.7991 127.329 68.7693 127.84 69.84C128.563 71.4675 129.073 73.1807 129.116 75.108Z" fill="#033D8B"/>
<path d="M70.8279 85.2155C67.637 82.5173 64.8715 80.1617 63.2548 76.7353C61.9784 73.9942 63.2548 69.1545 65.5523 66.8845C66.2755 66.1992 66.701 66.499 67.0414 67.1415C67.4243 67.9124 67.8072 68.6833 67.9774 69.4971C68.9559 74.551 69.8494 79.6477 70.8279 85.2155Z" fill="#033D8B"/>
<path d="M121.63 70.3536V73.266C121.63 73.3089 121.63 73.3517 121.63 73.3945C121.588 73.6943 121.46 73.9941 121.205 74.2083C113.036 81.3608 102.314 80.8897 98.9958 73.0091C97.8896 70.7819 94.1881 70.8247 93.2096 73.0091C89.891 80.9325 79.1269 81.3608 71.0007 74.2083C70.7454 73.9941 70.6177 73.6943 70.5752 73.3945C70.5752 73.3517 70.5752 73.3089 70.5752 73.266V70.3536C70.5752 70.3108 70.5752 70.268 70.5752 70.2251C70.6177 69.8397 70.7879 69.497 71.1283 69.2829C78.744 63.972 87.7637 63.3724 93.2521 70.011C95.1667 69.3257 97.1238 69.3257 99.0384 70.011C104.527 63.3724 113.547 63.972 121.162 69.2829C121.46 69.497 121.673 69.8397 121.715 70.2251C121.63 70.268 121.63 70.3108 121.63 70.3536Z" fill="#002155"/>
<path d="M76.9125 73.9085C79.21 77.8488 88.0595 78.6626 90.357 73.6944C90.6974 72.9235 90.6974 72.0669 90.357 71.2959C88.017 66.3277 79.21 67.0986 76.9125 71.0818C76.4445 71.9384 76.4445 73.0091 76.9125 73.9085Z" fill="#80CCFF"/>
<path d="M91.1232 70.9103C89.8894 68.2549 87.0813 66.6273 83.4649 66.4989C79.4231 66.3275 75.5514 67.9979 74.0623 70.6105C73.7219 71.1673 73.5518 71.8526 73.5518 72.495C73.5518 73.1374 73.7219 73.7799 74.0623 74.3367C75.5089 76.8208 79.0827 78.4911 82.9119 78.4911C83.1246 78.4911 83.2948 78.4911 83.5075 78.4911C87.1664 78.3198 89.9319 76.6923 91.1657 74.0797C91.5487 73.0518 91.5487 71.8954 91.1232 70.9103ZM90.9105 73.9512C89.7192 76.521 86.9962 78.1057 83.4224 78.277C83.2097 78.277 83.0395 78.277 82.8268 78.277C79.0827 78.277 75.5514 76.6495 74.1899 74.251C73.5518 73.1803 73.5518 71.8097 74.1899 70.739C75.594 68.2977 79.0827 66.713 82.8268 66.713C83.0395 66.713 83.2097 66.713 83.4224 66.713C86.9962 66.8843 89.7192 68.4262 90.9105 70.996C91.3359 71.9382 91.3359 73.009 90.9105 73.9512Z" fill="white"/>
<path d="M115.248 73.9085C112.95 77.8488 104.101 78.6626 101.803 73.6944C101.463 72.9235 101.463 72.0669 101.803 71.2959C104.143 66.3277 112.95 67.0986 115.248 71.0818C115.758 71.9384 115.758 73.0091 115.248 73.9085Z" fill="#80CCFF"/>
<path d="M118.184 70.6106C116.695 67.998 112.823 66.2848 108.739 66.499C105.122 66.6703 102.314 68.255 101.08 70.9104C100.612 71.8955 100.612 73.0519 101.08 74.037C102.314 76.6924 105.122 78.3199 108.739 78.4484C108.951 78.4484 109.122 78.4484 109.334 78.4484C111.249 78.4484 113.121 78.0201 114.653 77.292C116.227 76.5639 117.461 75.536 118.184 74.294C118.865 73.1804 118.865 71.767 118.184 70.6106ZM118.014 74.2511C116.567 76.7781 112.738 78.4484 108.781 78.2771C105.207 78.1058 102.485 76.5639 101.293 73.9513C100.868 73.0091 100.868 71.9383 101.293 70.9961C102.485 68.4263 105.207 66.8416 108.781 66.7131C108.994 66.7131 109.164 66.7131 109.377 66.7131C113.121 66.7131 116.652 68.3407 118.014 70.7391C118.609 71.8098 118.609 73.1376 118.014 74.2511Z" fill="white"/>
<path d="M71.2978 70.6107V73.052C71.2978 73.2661 71.1276 73.3946 70.9574 73.3946H70.5745H69.681L69.1279 70.2681H71C71.1276 70.2253 71.2978 70.3966 71.2978 70.6107Z" fill="#80CCFF"/>
<path d="M123.29 70.2251L122.694 73.3945H121.673H121.46C121.248 73.3945 121.12 73.2232 121.12 73.0518V70.6106C121.12 70.3964 121.29 70.2679 121.46 70.2679H123.29V70.2251Z" fill="#80CCFF"/>
<path d="M90.4012 73.6945C90.7415 72.9236 90.7415 72.067 90.4012 71.2961C89.1248 68.5978 85.9338 67.6127 82.9131 67.8697L88.4441 75.9216C89.2524 75.3649 89.9331 74.6368 90.4012 73.6945Z" fill="white"/>
<path d="M115.248 73.9084C115.758 73.0518 115.758 71.9382 115.248 71.0388C113.971 68.8117 110.568 67.5696 107.462 67.8266L113.035 75.9642C113.971 75.4502 114.78 74.765 115.248 73.9084Z" fill="white"/>
<defs>
<filter id="filter0_dd_1937_2122" x="0" y="0" width="192" height="192" filterUnits="userSpaceOnUse" color-interpolation-filters="sRGB">
<feFlood flood-opacity="0" result="BackgroundImageFix"/>
<feColorMatrix in="SourceAlpha" type="matrix" values="0 0 0 0 0 0 0 0 0 0 0 0 0 0 0 0 0 0 127 0" result="hardAlpha"/>
<feMorphology radius="2" operator="erode" in="SourceAlpha" result="effect1_dropShadow_1937_2122"/>
<feOffset dy="2"/>
<feGaussianBlur stdDeviation="2"/>
<feComposite in2="hardAlpha" operator="out"/>
<feColorMatrix type="matrix" values="0 0 0 0 0 0 0 0 0 0 0 0 0 0 0 0 0 0 0.06 0"/>
<feBlend mode="normal" in2="BackgroundImageFix" result="effect1_dropShadow_1937_2122"/>
<feColorMatrix in="SourceAlpha" type="matrix" values="0 0 0 0 0 0 0 0 0 0 0 0 0 0 0 0 0 0 127 0" result="hardAlpha"/>
<feMorphology radius="2" operator="erode" in="SourceAlpha" result="effect2_dropShadow_1937_2122"/>
<feOffset dy="4"/>
<feGaussianBlur stdDeviation="4"/>
<feComposite in2="hardAlpha" operator="out"/>
<feColorMatrix type="matrix" values="0 0 0 0 0 0 0 0 0 0 0 0 0 0 0 0 0 0 0.1 0"/>
<feBlend mode="normal" in2="effect1_dropShadow_1937_2122" result="effect2_dropShadow_1937_2122"/>
<feBlend mode="normal" in="SourceGraphic" in2="effect2_dropShadow_1937_2122" result="shape"/>
</filter>
</defs>
</svg>
