<svg width="192" height="192" viewBox="0 0 192 192" fill="none" xmlns="http://www.w3.org/2000/svg">
<g filter="url(#filter0_dd_1937_2122)">
<rect x="6" y="2" width="180" height="180" rx="20" fill="white"/>
</g>
<path d="M96 173.301C137.421 173.301 171 139.723 171 98.3013C171 56.8799 137.421 23.3013 96 23.3013C54.5786 23.3013 21 56.8799 21 98.3013C21 139.723 54.5786 173.301 96 173.301Z" fill="#B6E3FF"/>
<path d="M159.072 138.921C156.271 143.335 151.814 149.277 145.192 155.05C142.603 157.3 134.836 163.709 123.333 168.208C99.7765 177.376 78.2994 171.561 75.3707 170.712C50.7952 163.624 37.8495 145.882 34.0295 140.449C33.6475 139.897 33.3079 139.388 33.0957 139.091C33.6475 138.666 34.369 138.242 35.2604 137.987C35.4302 137.945 35.5575 137.902 35.5575 137.902C46.2111 134.507 56.695 130.517 67.094 126.442C69.004 125.678 69.8105 125.89 70.7018 127.8C74.0974 134.974 79.3181 140.279 87.0006 142.868C87.892 143.165 87.9344 143.165 89.038 142.911C85.5575 141.892 82.459 140.194 79.6577 138.03C75.8801 135.058 72.8665 131.493 71.0414 126.994C70.7018 126.145 70.2349 125.296 71.6356 124.829C74.6492 123.853 75.9225 121.391 76.6017 118.505C77.5354 114.473 77.5354 110.398 77.875 106.281C77.9174 105.644 77.6203 104.753 78.1721 104.498C79.3606 103.904 78.6814 103.479 78.257 102.928C75.3707 99.3623 73.3334 95.3725 72.5269 90.8309C71.7205 86.2469 71.0414 81.6628 70.2349 77.0788C69.5983 73.3437 69.1314 69.5661 67.9853 65.9158C67.5184 64.4303 66.33 64.1331 65.0142 64.0058C63.656 63.8785 63.8682 65.1518 63.4013 65.8734C63.0193 66.4676 63.1466 67.2741 62.2977 67.6985C61.1942 65.5763 61.4064 63.0296 60.2604 60.5678C59.6237 62.3505 59.0719 63.836 58.4777 65.4065C57.841 59.2944 57.9684 53.3097 58.3928 46.9005C57.077 48.3861 57.4166 50.2112 55.931 51.4421C56.695 47.5372 56.9921 43.8445 59.4539 40.2791C57.2468 41.0432 56.5252 42.4863 55.6763 43.9719C54.9548 42.7834 55.6763 41.9345 55.7612 41.0007C56.8648 39.8547 57.9684 38.7087 59.3266 37.308C57.6713 37.308 56.2281 37.1382 55.5066 35.5678C54.8699 34.1246 54.5303 32.724 55.167 31.0686C57.5015 34.2095 60.5999 31.6629 63.4862 32.724C60.6424 28.9039 61.2366 24.4897 64.6747 22.325C64.9718 23.5983 63.9955 24.8292 64.5049 26.0177C64.7171 26.4846 64.3775 27.3335 65.184 27.3759C65.8207 27.4184 65.7782 26.6968 65.9904 26.2724C66.2876 25.7206 66.4149 25.0839 67.2213 24.6595C67.3062 26.0177 67.1364 27.3759 68.24 28.3946C69.004 29.0737 69.4709 29.1586 70.0227 28.2248C76.0499 17.9956 86.5762 14.982 96.8478 11.7138C97.7816 11.4167 98.7578 10.78 100.498 11.0771C98.0363 12.4778 96.0414 13.5814 94.0465 14.7274C103.639 14.0482 112.722 16.1705 122.357 18.8445C120.532 19.0143 119.216 19.1416 117.476 19.3114C121.169 21.8156 124.225 24.3623 126.941 27.3335C130.507 31.2384 132.926 35.8224 135.048 40.6187C135.6 43.123 136.831 45.5423 136.619 48.4286C135.26 47.6221 135.388 45.8394 133.605 45.2028C136.152 54.1162 132.417 61.6289 129.403 69.3539C128.554 68.5474 129.021 67.4863 128.681 66.6798C128.257 65.746 128.512 64.3029 126.814 64.3029C125.328 64.3029 124.437 65.0669 123.97 66.3827C123.673 67.1892 123.418 67.9956 123.249 68.8021C122.23 74.1501 121.126 79.4557 120.362 84.8038C119.344 91.8072 117.816 98.5559 112.892 103.989C112.043 104.838 111.152 105.729 110.303 106.578C110.176 106.748 109.878 106.96 110.175 107.172C110.515 107.384 110.557 107.045 110.642 106.833C111.704 106.196 112.51 105.305 113.189 104.286C114.165 104.71 113.614 105.517 113.614 106.111C113.698 109.974 113.783 113.878 114.42 117.699C114.844 120.457 115.948 122.919 118.664 124.108C120.108 124.744 120.108 125.466 119.598 126.697C116.075 135.61 109.539 141.001 100.413 143.505C101.262 144.014 102.026 143.632 102.833 143.378C111.279 140.534 117.264 135.058 120.362 126.654C120.574 126.06 120.744 125.593 121.126 125.381C121.636 125.126 122.187 125.423 122.357 125.508C123.418 125.89 138.316 131.366 159.072 138.921ZM91.8818 143.505C91.7969 143.505 91.6696 143.547 91.5847 143.547C91.6271 143.463 91.6696 143.378 91.712 143.335C91.7969 143.378 91.8393 143.463 91.8818 143.505C93.8767 145.16 96.1687 144.057 98.3758 144.396C97.7816 143.76 97.1874 143.717 96.4658 143.717C94.9378 143.717 93.4098 143.59 91.8818 143.505ZM83.7748 108.361C90.6509 114.897 100.413 114.812 105.507 110.143C97.7816 115.067 90.6509 113.284 83.7748 108.361ZM106.355 109.507C107.799 109.294 108.817 108.488 109.751 107.639C109.624 107.512 109.539 107.342 109.411 107.215C108.393 107.936 107.374 108.743 106.355 109.507Z" fill="#033D8B"/>
<path d="M83.7744 108.361C90.6929 113.284 97.7812 115.067 105.506 110.144C100.413 114.812 90.608 114.897 83.7744 108.361Z" fill="#B6E3FF"/>
<path d="M91.8818 143.505C93.4098 143.59 94.9379 143.717 96.4659 143.717C97.1874 143.717 97.8241 143.76 98.3759 144.396C96.1688 144.057 93.8767 145.16 91.8818 143.505Z" fill="#B6E3FF"/>
<path d="M91.924 143.505C91.8391 143.42 91.7542 143.378 91.6693 143.293C91.6269 143.378 91.5844 143.463 91.542 143.505C91.7118 143.505 91.7967 143.505 91.924 143.505Z" fill="#D8D8D8"/>
<path d="M128.766 74.5747C128.894 75.6358 128.554 76.6969 127.917 77.6732C126.432 80.0076 124.649 82.1299 122.4 83.7428C122.06 83.9974 121.678 84.337 121.254 84.0823C120.787 83.8277 121.041 83.3183 121.126 82.9363C121.975 78.5221 122.824 74.0654 123.715 69.6511C123.97 68.3778 124.14 66.5102 125.625 66.4253C127.069 66.3404 126.984 68.2929 127.493 69.354C128.257 70.9669 128.724 72.6647 128.766 74.5747Z" fill="#033D8B"/>
<path d="M70.6603 84.5916C67.477 81.9175 64.718 79.5831 63.1051 76.1875C61.8318 73.471 63.1051 68.6748 65.3972 66.4252C66.1187 65.7461 66.5432 66.0432 66.8827 66.6799C67.2647 67.4439 67.6467 68.2079 67.8165 69.0143C68.7928 74.0228 69.6841 79.0313 70.6603 84.5916Z" fill="#033D8B"/>
<path d="M120.787 68.8021C113.19 63.5389 104.191 62.9447 98.7159 69.5236C96.8059 68.8445 94.8534 68.8445 92.9434 69.5236C87.468 62.9447 78.4697 63.5389 70.8721 68.8021C70.5325 69.0567 70.3203 69.4387 70.3203 69.8207V72.707C70.3203 73.089 70.4901 73.4285 70.7448 73.6408C78.8942 80.7291 89.5903 80.2622 92.901 72.4523C93.8772 70.2876 97.5699 70.2452 98.6735 72.4523C101.984 80.3046 112.723 80.7291 120.83 73.6408C121.084 73.3861 121.254 73.0465 121.254 72.707V69.8207C121.339 69.4387 121.127 69.0567 120.787 68.8021Z" fill="#002155"/>
<path d="M76.7306 73.3861C79.0227 77.2911 87.8512 78.0975 90.1432 73.1739C90.4828 72.4099 90.4828 71.561 90.1432 70.797C87.8087 65.8734 79.0227 66.6374 76.7306 70.5848C76.2213 71.4337 76.2213 72.4948 76.7306 73.3861Z" fill="#80CCFF"/>
<path d="M82.6298 77.9276C78.8098 77.9276 75.2445 76.2722 73.8013 73.8104C73.1222 72.6644 73.1222 71.2637 73.8013 70.1177C75.2869 67.5286 79.1494 65.8308 83.2241 66.043C86.8743 66.2128 89.6332 67.7832 90.8641 70.4148C91.331 71.3911 91.331 72.5371 90.8641 73.5133C89.6332 76.1449 86.8319 77.7578 83.2241 77.8851C83.0119 77.8851 82.8421 77.9276 82.6298 77.9276ZM82.6298 66.2128C78.8947 66.2128 75.3718 67.8257 74.0136 70.2026C73.3769 71.2637 73.3769 72.622 74.0136 73.6831C75.4567 76.1873 79.2767 77.8427 83.2241 77.6729C86.7894 77.5031 89.5059 75.9751 90.6944 73.386C91.1188 72.4522 91.1188 71.3911 90.6944 70.4573C89.5059 67.9106 86.7894 66.3401 83.2241 66.1703C83.0119 66.2128 82.8421 66.2128 82.6298 66.2128Z" fill="white"/>
<path d="M114.973 73.3861C112.681 77.2911 103.852 78.0975 101.56 73.1739C101.221 72.4099 101.221 71.561 101.56 70.797C103.895 65.8734 112.681 66.6374 114.973 70.5848C115.482 71.4337 115.482 72.4948 114.973 73.3861Z" fill="#80CCFF"/>
<path d="M109.073 77.9278C108.861 77.9278 108.691 77.9278 108.479 77.9278C104.828 77.758 102.069 76.1875 100.838 73.556C100.372 72.5797 100.372 71.4337 100.838 70.4575C102.069 67.8259 104.871 66.213 108.479 66.0857C112.511 65.9159 116.373 67.5712 117.901 70.1604C118.58 71.3064 118.58 72.7071 117.901 73.8531C116.458 76.2724 112.893 77.9278 109.073 77.9278ZM109.073 66.213C108.861 66.213 108.691 66.213 108.479 66.213C104.913 66.3828 102.197 67.9108 101.008 70.4999C100.584 71.4337 100.584 72.4948 101.008 73.4286C102.197 75.9753 104.913 77.5458 108.479 77.7156C112.426 77.8853 116.246 76.23 117.689 73.7257C118.326 72.6646 118.326 71.3064 117.689 70.2453C116.331 67.8259 112.808 66.213 109.073 66.213Z" fill="white"/>
<path d="M70.746 72.8768H69.4727L68.9209 69.7783H70.7885C71.0007 69.7783 71.128 69.9481 71.128 70.1179V72.5372C71.128 72.707 70.9582 72.8768 70.746 72.8768Z" fill="#80CCFF"/>
<path d="M121.128 72.8768H122.401L122.995 69.7358H121.128C120.915 69.7358 120.788 69.9056 120.788 70.0754V72.4948C120.788 72.707 120.958 72.8768 121.128 72.8768Z" fill="#80CCFF"/>
<path d="M90.1851 73.1313C90.5247 72.3673 90.5247 71.5184 90.1851 70.7544C88.9118 68.0804 85.7284 67.1042 82.7148 67.3588L88.2327 75.3385C89.0391 74.8291 89.7182 74.1076 90.1851 73.1313Z" fill="white"/>
<path d="M114.972 73.3862C115.482 72.5373 115.482 71.4337 114.972 70.5424C113.699 68.3352 110.304 67.1043 107.205 67.359L112.765 75.4235C113.699 74.9142 114.506 74.1926 114.972 73.3862Z" fill="white"/>
<defs>
<filter id="filter0_dd_1937_2122" x="0" y="0" width="192" height="192" filterUnits="userSpaceOnUse" color-interpolation-filters="sRGB">
<feFlood flood-opacity="0" result="BackgroundImageFix"/>
<feColorMatrix in="SourceAlpha" type="matrix" values="0 0 0 0 0 0 0 0 0 0 0 0 0 0 0 0 0 0 127 0" result="hardAlpha"/>
<feMorphology radius="2" operator="erode" in="SourceAlpha" result="effect1_dropShadow_1937_2122"/>
<feOffset dy="2"/>
<feGaussianBlur stdDeviation="2"/>
<feComposite in2="hardAlpha" operator="out"/>
<feColorMatrix type="matrix" values="0 0 0 0 0 0 0 0 0 0 0 0 0 0 0 0 0 0 0.06 0"/>
<feBlend mode="normal" in2="BackgroundImageFix" result="effect1_dropShadow_1937_2122"/>
<feColorMatrix in="SourceAlpha" type="matrix" values="0 0 0 0 0 0 0 0 0 0 0 0 0 0 0 0 0 0 127 0" result="hardAlpha"/>
<feMorphology radius="2" operator="erode" in="SourceAlpha" result="effect2_dropShadow_1937_2122"/>
<feOffset dy="4"/>
<feGaussianBlur stdDeviation="4"/>
<feComposite in2="hardAlpha" operator="out"/>
<feColorMatrix type="matrix" values="0 0 0 0 0 0 0 0 0 0 0 0 0 0 0 0 0 0 0.1 0"/>
<feBlend mode="normal" in2="effect1_dropShadow_1937_2122" result="effect2_dropShadow_1937_2122"/>
<feBlend mode="normal" in="SourceGraphic" in2="effect2_dropShadow_1937_2122" result="shape"/>
</filter>
</defs>
</svg>
