<svg width="30" height="30" viewBox="0 0 30 30" fill="none" xmlns="http://www.w3.org/2000/svg">
<g clip-path="url(#clip0_1702_2254)">
<path fill-rule="evenodd" clip-rule="evenodd" d="M22.4955 14.1573C23.8455 14.1573 24.462 13.7151 25.3125 13.1043L25.3131 13.1039C26.3315 12.3718 27.599 11.4607 30 11.4607V14.1573C28.6516 14.1573 28.0681 14.5766 27.1862 15.2102L27.186 15.2104L27.183 15.2125C26.1635 15.9443 24.8962 16.8539 22.4955 16.8539C20.0945 16.8539 18.827 15.9428 17.8086 15.2108L17.808 15.2104C16.9575 14.5996 16.341 14.1573 14.991 14.1573C13.644 14.1573 13.0605 14.5753 12.18 15.209C11.1615 15.9425 9.8925 16.8539 7.4925 16.8539C5.0925 16.8539 3.8265 15.9425 2.808 15.209L2.80434 15.2064C1.92588 14.5755 1.34363 14.1573 0 14.1573V11.4607C2.39887 11.4607 3.6633 12.3713 4.68156 13.1046L4.683 13.1056L4.68666 13.1083C5.56511 13.7392 6.14737 14.1573 7.4925 14.1573C8.83939 14.1573 9.42032 13.7399 10.2989 13.1087L10.305 13.1043L10.3075 13.1025C11.3256 12.3707 12.5915 11.4607 14.991 11.4607C17.3917 11.4607 18.659 12.3704 19.6785 13.1022L19.6815 13.1043L19.6817 13.1045C20.5636 13.7381 21.1471 14.1573 22.4955 14.1573ZM30 18.2023V17.8652C27.599 17.8652 26.3315 18.7763 25.3131 19.5084L25.3125 19.5088C24.462 20.1196 23.8455 20.5618 22.4955 20.5618C21.1471 20.5618 20.5636 20.1426 19.6817 19.509L19.6815 19.5088L19.6785 19.5067C18.659 18.7749 17.3917 17.8652 14.991 17.8652C12.5915 17.8652 11.3256 18.7752 10.3075 19.507L10.305 19.5088L10.2989 19.5132C9.42032 20.1444 8.83939 20.5618 7.4925 20.5618C6.14737 20.5618 5.56511 20.1437 4.68666 19.5128L4.683 19.5101L4.68155 19.5091C3.6633 18.7758 2.39886 17.8652 0 17.8652V18.2023V20.5618V20.8989C1.34363 20.8989 1.92588 21.3171 2.80433 21.9479L2.808 21.9506C3.8265 22.6841 5.0925 23.5955 7.4925 23.5955C9.8925 23.5955 11.1615 22.6841 12.18 21.9506C13.0605 21.3169 13.644 20.8989 14.991 20.8989C16.341 20.8989 16.9575 21.3411 17.808 21.9519L17.8086 21.9523C18.827 22.6844 20.0945 23.5955 22.4955 23.5955C24.8962 23.5955 26.1635 22.6858 27.183 21.954L27.186 21.9519L27.1862 21.9517C28.0681 21.3181 28.6516 20.8989 30 20.8989V20.5618V18.2023ZM19.6817 26.2505C20.5636 26.8841 21.1471 27.3034 22.4955 27.3034C23.8455 27.3034 24.462 26.8611 25.3125 26.2504L25.3131 26.2499C26.3315 25.5179 27.599 24.6068 30 24.6068V27.3034C28.6516 27.3034 28.0681 27.7226 27.1862 28.3562L27.186 28.3564L27.183 28.3585C26.1635 29.0903 24.8962 30 22.4955 30C20.0945 30 18.827 29.0889 17.8086 28.3568L17.808 28.3564C16.9575 27.7456 16.341 27.3034 14.991 27.3034C13.644 27.3034 13.0605 27.7214 12.18 28.3551C11.1615 29.0886 9.8925 30 7.4925 30C5.0925 30 3.8265 29.0886 2.808 28.3551L2.80433 28.3524C1.92588 27.7216 1.34363 27.3034 0 27.3034V24.6068C2.39887 24.6068 3.66331 25.5174 4.68156 26.2507L4.683 26.2517L4.68666 26.2543C5.56512 26.8852 6.14737 27.3034 7.4925 27.3034C8.83939 27.3034 9.42032 26.886 10.2989 26.2547L10.305 26.2504L10.3075 26.2486C11.3256 25.5167 12.5915 24.6068 14.991 24.6068C17.3917 24.6068 18.659 25.5165 19.6785 26.2482L19.6815 26.2504L19.6817 26.2505Z" fill="white"/>
<path d="M20.5564 8.23332C20.8312 8.66978 20.933 9.07755 20.933 9.4382H0C0.254462 9.35418 0.637172 9.16976 2.04384 8.5038C3.22454 7.9444 3.82507 7.68006 4.18538 7.50794C4.7167 7.26409 5.36201 6.98336 6.25772 6.64321C7.28371 6.26208 7.8191 6.05717 8.35041 5.56333C8.93058 5.01827 8.94076 4.63508 9.48429 3.81134C10.1133 2.87695 10.8319 2.29295 11.2818 1.92411C11.9475 1.37905 13.0773 0.59834 14.8321 0C15.7054 0.233598 16.6296 0.516376 17.5965 0.844233C18.4719 1.1557 19.276 1.45897 20.017 1.76838C22.3885 2.79703 22.8934 3.16382 22.8934 3.16382C22.8934 3.16382 24.7601 4.29903 25.4502 4.47525C26.1383 4.65148 26.2401 4.80926 26.4721 4.9527C26.7063 5.09613 27.1724 5.54489 27.1724 5.54489C27.7953 6.11454 28.4854 6.70264 29.2468 7.29688C29.5074 7.48949 29.7557 7.67801 30 7.85014C29.2631 7.86448 28.7684 7.7026 28.4529 7.54687C27.6976 7.19032 27.4595 6.64526 26.5414 6.3174C26.2543 6.21085 26.0121 6.17601 25.8492 6.15143C26.0894 6.36043 26.3928 6.64731 26.9058 7.10426C27.2315 7.40138 27.5042 7.65137 27.4248 7.85219C27.4269 7.87677 27.3902 7.96079 27.3047 7.98333C27.1154 8.04685 26.8182 7.82555 26.6411 7.6944C25.7047 6.99566 25.8309 7.2395 24.9128 6.49772C24.3815 6.05717 24.239 5.90553 24.1413 5.76209C23.9377 5.47112 23.842 5.21498 23.8013 5.03261L23.2659 4.79082C23.0196 4.67812 22.6796 4.52443 22.2786 4.36665C21.8593 4.20067 21.0348 3.88921 19.9111 3.60233C18.8057 3.338 18.6571 3.39332 17.5863 3.15768C16.6133 2.92613 15.8458 2.67819 15.3695 2.49786C15.1089 2.94047 14.8422 3.31751 14.5959 3.64332C14.2987 4.0306 14.0544 4.35436 13.6656 4.72729C13.2951 5.08179 12.9124 5.38096 12.5399 5.63505C12.6172 5.81947 12.7048 6.0961 12.7516 6.4301C12.8004 6.73747 12.8493 7.09606 12.7292 7.50384C12.6355 7.79686 12.55 7.82145 12.3302 8.2825C12.1999 8.57142 12.1246 8.82346 12.0757 8.98739C12.2325 8.971 12.5073 8.93616 12.8126 8.83576C14.2926 8.37676 14.4962 7.37269 15.5669 6.86247C16.0372 6.63911 16.8128 6.4301 18.1543 6.6678C18.3131 6.70059 19.793 7.01205 20.5564 8.23332Z" fill="white"/>
</g>
<defs>
<clipPath id="clip0_1702_2254">
<rect width="30" height="30" fill="white"/>
</clipPath>
</defs>
</svg>
