<svg width="38" height="38" viewBox="0 0 38 38" fill="none" xmlns="http://www.w3.org/2000/svg">
<path d="M19.049 0C8.64901 0 0.249023 8.39999 0.249023 18.8C0.249023 29.2 8.64901 37.6 19.049 37.6C29.449 37.6 37.849 29.2 37.849 18.8C37.949 8.39999 29.449 0 19.049 0ZM24.349 11.5C24.349 11.5 22.549 11.5 21.849 11.5C20.949 11.5 20.749 11.9 20.749 12.8C20.749 13.6 20.749 15 20.749 15H24.249L23.949 18.8H20.749V30.3H16.149V18.9H13.749V15H16.149C16.149 15 16.149 14.4 16.149 11.9C16.149 8.99996 17.649 7.5 21.149 7.5C21.749 7.5 24.349 7.5 24.349 7.5V11.5Z" fill="white"/>
</svg>
