<svg width="192" height="192" viewBox="0 0 192 192" fill="none" xmlns="http://www.w3.org/2000/svg">
<g filter="url(#filter0_dd_1937_2200)">
<rect x="6" y="2" width="180" height="180" rx="20" fill="white"/>
</g>
<path d="M96 170.265C137.421 170.265 171 136.686 171 95.2649C171 53.8435 137.421 20.2649 96 20.2649C54.5786 20.2649 21 53.8435 21 95.2649C21 136.686 54.5786 170.265 96 170.265Z" fill="#B6E3FF"/>
<path d="M164.506 125.613C162.936 129.093 160.559 133.762 156.951 138.771C148.25 150.952 138.148 157.404 134.54 159.611C130.253 162.158 119.26 168.185 103.725 169.84C85.8135 171.708 72.1463 166.7 67.3924 164.747C62.1717 162.625 44.5147 154.688 33.3517 136.564C32.9272 135.842 32.5452 135.248 32.333 134.823C36.2379 128.202 39.6335 123.066 42.0104 119.671C46.0002 113.941 48.844 110.46 50.6692 104.263C51.3483 101.971 51.7727 99.5518 52.0274 97.09C52.6641 89.7895 51.3907 82.5739 50.6267 75.3583C49.9052 68.9915 48.9714 62.6248 50.7541 56.343C54.4043 43.7369 59.6675 31.9797 69.1751 22.5993C73.6318 19.034 78.4281 16.2751 83.9884 14.7471C87.6386 13.7284 91.1191 13.6435 94.642 15.1715C95.6182 15.596 96.552 15.8082 97.6132 15.2988C100.839 13.6859 104.192 13.983 107.588 14.8319C113.148 16.2326 118.029 18.9066 122.358 22.6418C127.24 27.9474 130.253 34.2717 132.121 41.1053C134.243 48.8727 138.318 55.2819 144.175 60.7148C146.043 62.4126 147.74 64.3226 149.353 66.2326C156.442 74.4669 158.309 83.5501 153.853 93.6944C152.834 96.0713 151.815 98.4482 150.966 100.91C149.905 103.924 149.735 106.725 150.372 109.314C150.839 111.097 151.645 112.667 155.126 116.53C157.291 118.907 160.389 122.132 164.506 125.613ZM113.36 119.883C113.657 119.883 113.785 119.756 113.827 119.458C114.549 118.864 115.398 118.312 115.992 117.591C117.265 116.02 118.623 115.851 120.491 116.615C122.443 117.421 124.396 118.312 126.688 118.525C126.179 117.761 125.499 117.761 124.905 117.548C119.982 115.681 114.973 113.983 110.389 111.351C108.776 110.46 107.757 109.187 107.757 107.277C107.757 103.457 107.757 99.6791 107.757 95.7742C107.078 95.7318 106.442 96.1562 105.635 97.0476C106.654 96.9202 107.418 96.5382 107.291 97.9389C107.036 100.825 107.206 103.754 106.993 106.64C106.824 109.314 108.012 111.012 110.347 112.115C112.554 113.177 114.718 114.28 116.926 115.426C116.077 116.997 114.591 117.846 113.615 119.161C113.445 119.289 113.318 119.458 113.148 119.586C112.978 119.756 112.639 119.883 113.021 120.18C113.021 120.265 113.275 120.01 113.36 119.883ZM72.4858 119.713C72.6556 119.84 72.7829 119.968 72.9527 120.138C73.7167 120.902 74.4383 121.75 75.9663 122.345C74.9901 121.029 74.1836 120.35 73.2074 119.883C73.0376 119.756 72.9103 119.586 72.7405 119.458C72.6556 119.246 72.5707 118.864 72.2736 119.161C71.9765 119.374 72.316 119.543 72.4858 119.713ZM112.044 120.817C111.577 120.986 111.026 121.071 110.559 122.005C111.408 121.623 112.087 121.708 112.002 120.774C112.172 120.774 112.342 120.774 112.511 120.817C112.469 120.689 112.469 120.604 112.426 120.477C112.299 120.562 112.172 120.689 112.044 120.817ZM112.214 92.3362C111.408 93.0153 110.601 93.7369 109.795 94.416C109.455 94.416 108.988 94.5433 109.285 94.9678C109.498 95.3073 109.88 94.9253 110.049 94.6282C111.026 94.2038 111.959 93.652 112.554 92.7182C113.148 92.3786 113.7 91.9966 113.87 91.0628C112.978 91.3175 112.639 91.8693 112.214 92.3362ZM90.6098 99.8914L90.6522 99.8489L90.5673 99.8914C90.1004 99.0849 89.2515 98.8727 88.4451 98.5756C84.7099 97.09 81.2295 95.1376 78.0885 92.5909C77.8339 92.3786 77.6216 91.742 76.9425 92.3362C77.8763 93.5246 79.1072 94.3311 80.2532 95.2224C80.6352 95.5196 81.3992 95.6893 81.1021 96.326C79.8288 98.7878 80.5079 101.419 80.4654 103.966C80.423 107.404 80.4654 110.715 76.3907 112.243C79.5741 111.691 81.187 109.823 81.187 106.767C81.2294 103.245 81.187 99.6791 81.187 95.944C84.4128 97.1749 87.2142 99.2971 90.6098 99.8914ZM90.44 42.9729C84.3279 49 77.1972 53.5416 70.3211 58.3803C68.7931 59.4415 68.2838 61.1817 68.2838 63.0917C68.1989 67.4211 68.6658 71.708 69.1751 75.9525C69.2176 76.4194 69.642 77.0136 69.0053 77.3532C68.496 77.6078 67.9867 77.1834 67.6047 76.8863C64.8457 74.5094 63.1904 71.4958 62.8084 67.888C62.6386 66.1053 63.7846 65.5535 65.3551 65.6808C65.822 65.7233 66.3738 66.1053 66.7558 65.5111C66.8407 65.3413 66.6709 64.9168 66.5011 64.7471C66.0766 64.3651 65.6098 64.0255 64.9306 64.1953C63.4026 64.5773 61.7897 66.4873 62.0868 68.27C62.7235 72.5145 64.3364 76.2496 68.5809 78.2021C69.7269 78.7114 70.2787 79.4754 70.5758 80.6639C71.0851 82.9134 71.934 85.0781 73.08 87.3277C73.1649 86.9033 73.2923 86.691 73.2498 86.5213C73.1649 86.0968 72.9951 85.6723 72.8678 85.2903C70.3211 78.1596 69.1327 70.8167 69.3025 63.219C69.3449 60.7997 70.2362 59.1019 72.4009 57.7861C78.513 53.9661 84.2006 49.5094 89.6335 44.8404C90.0155 44.4584 90.8644 44.2038 90.44 42.9729ZM98.6743 43.3124C98.5469 43.4398 98.4196 43.5671 98.2923 43.6944C98.4621 43.9066 98.5894 44.1613 98.7592 44.3735C103.301 49.5094 108.819 53.4992 114.888 56.4279C118.92 58.3803 120.194 61.2241 120.066 65.2564C119.854 72.3447 118.836 79.3056 116.501 86.0119C116.374 86.3515 115.864 86.7759 116.671 87.1155C117.859 85.0357 118.369 82.7437 118.963 80.4941C119.175 79.6452 119.302 78.7538 120.279 78.2869C124.481 76.2496 125.797 72.2598 126.603 68.1426C127.07 65.6808 124.608 63.9406 122.231 64.7046C126.094 65.7233 126.603 66.742 125.117 70.6893C124.481 72.4296 123.589 74.0849 122.528 75.5705C121.849 76.5043 121.128 77.4381 119.642 77.5229C119.769 76.674 119.854 75.9525 119.939 75.2309C120.448 71.6231 121.085 68.0578 121.043 64.3651C120.958 60.545 119.642 57.6163 116.034 55.8761C114.039 54.8999 112.172 53.669 110.262 52.5229C105.975 50.0611 101.985 47.09 98.6743 43.3124ZM77.5792 123.66C82.6301 127.396 87.9357 130.621 93.1989 129.475C88.3602 129.348 82.8424 127.014 77.5792 123.66ZM72.4009 113.983C68.114 115.554 63.8695 117.124 59.2006 118.864C61.4502 119.119 62.9782 118.1 64.5911 117.548C66.7133 116.827 68.8356 115.129 71.1276 118.058C68.496 115.044 71.7218 115.256 72.4009 113.983ZM91.6709 99.9338C96.5945 101.037 101.094 99.9338 105.253 97.2598C100.966 99.3396 96.4247 100.146 91.6709 99.9338ZM77.4943 123.491C77.0274 122.642 76.5605 122.26 75.7541 122.175C76.0087 122.981 76.4756 123.321 77.4943 123.491ZM114.676 90.3413C114.591 90.1715 114.506 89.9168 114.252 90.1715C114.082 90.2988 113.912 90.4686 113.87 90.6808C113.785 90.8931 113.954 91.0628 114.209 91.0204C114.464 90.8931 114.634 90.6808 114.676 90.3413ZM71.2549 117.973C71.17 118.1 71.0002 118.27 71.0427 118.27C71.17 118.397 71.2974 118.567 71.4671 118.652C71.7643 118.779 71.8067 118.44 71.7218 118.355C71.6369 118.143 71.4247 118.058 71.2549 117.973Z" fill="#033D8B"/>
<path d="M90.44 42.9729C90.8644 44.1614 90.058 44.416 89.5911 44.798C84.1157 49.5094 78.4705 53.9661 72.316 57.7861C70.1513 59.1444 69.26 60.7997 69.2176 63.2191C69.0902 70.7743 70.2362 78.1596 72.7829 85.2904C72.9102 85.7148 73.08 86.0968 73.1649 86.5213C73.2074 86.6911 73.08 86.9033 72.9951 87.3277C71.8491 85.0782 71.0002 82.9135 70.4909 80.6639C70.2362 79.4754 69.642 78.7114 68.496 78.2021C64.2515 76.2921 62.6386 72.5569 62.0019 68.27C61.7473 66.4873 63.3177 64.5773 64.8457 64.1953C65.5248 64.0255 65.9917 64.3226 66.4162 64.7471C66.586 64.9169 66.7558 65.3413 66.6709 65.5111C66.3313 66.1053 65.7795 65.7233 65.2702 65.6809C63.6997 65.596 62.5537 66.1478 62.7235 67.888C63.1055 71.4958 64.7184 74.5094 67.5198 76.8863C67.9018 77.1834 68.4111 77.6503 68.9204 77.3532C69.5571 77.0561 69.1327 76.4194 69.0902 75.9525C68.5809 71.6656 68.114 67.3787 68.1989 63.0917C68.2413 61.1817 68.7082 59.4415 70.2362 58.3804C77.1972 53.5417 84.2855 49.0001 90.44 42.9729Z" fill="#B6E3FF"/>
<path d="M98.6744 43.3124C101.985 47.09 105.933 50.0611 110.219 52.6078C112.129 53.7538 113.997 54.9847 115.992 55.9609C119.6 57.7012 120.916 60.6299 121 64.4499C121.085 68.1426 120.406 71.708 119.897 75.3158C119.812 76.0373 119.727 76.7589 119.6 77.6078C121.085 77.5654 121.849 76.6316 122.486 75.6553C123.547 74.1273 124.438 72.5144 125.075 70.7742C126.561 66.7844 126.051 65.7657 122.189 64.7895C124.566 63.983 127.07 65.7657 126.561 68.2275C125.754 72.3446 124.438 76.3344 120.236 78.3718C119.26 78.8387 119.175 79.73 118.921 80.5789C118.326 82.8285 117.817 85.1205 116.629 87.2003C115.822 86.8183 116.374 86.3939 116.459 86.0968C118.793 79.348 119.812 72.4295 120.024 65.3412C120.152 61.309 118.878 58.4652 114.846 56.5127C108.776 53.5416 103.258 49.5518 98.7169 44.4584C98.5471 44.2462 98.4198 43.9915 98.25 43.7793C98.4198 43.567 98.5471 43.4397 98.6744 43.3124Z" fill="#B6E3FF"/>
<path d="M113.614 119.204C114.591 117.888 116.076 117.082 116.925 115.469C114.676 114.323 112.553 113.219 110.346 112.158C108.012 111.054 106.823 109.357 106.993 106.683C107.163 103.796 107.035 100.868 107.29 97.9814C107.417 96.5383 106.653 96.9203 105.635 97.0901C106.399 96.1987 107.035 95.7743 107.757 95.8167C107.757 99.7217 107.757 103.499 107.757 107.319C107.757 109.229 108.776 110.46 110.389 111.394C115.015 113.983 119.981 115.681 124.905 117.591C125.499 117.803 126.178 117.846 126.687 118.567C124.395 118.355 122.4 117.421 120.49 116.657C118.623 115.893 117.307 116.063 115.991 117.633C115.397 118.355 114.548 118.864 113.827 119.501C113.784 119.374 113.699 119.289 113.614 119.204Z" fill="#B6E3FF"/>
<path d="M90.6102 99.8914C87.2146 99.2972 84.4132 97.1749 81.2299 95.8591C81.2299 99.5943 81.2723 103.16 81.2299 106.683C81.1874 109.739 79.617 111.606 76.4336 112.158C80.5083 110.63 80.4658 107.319 80.5083 103.881C80.5507 101.335 79.8716 98.7029 81.145 96.2411C81.4421 95.6469 80.6781 95.4347 80.2961 95.1376C79.1501 94.2462 77.9192 93.4398 76.9854 92.2513C77.6645 91.6571 77.8767 92.2938 78.1314 92.506C81.2723 95.0527 84.7528 96.9627 88.4879 98.4907C89.2519 98.7878 90.1433 99.0001 90.6102 99.8065V99.8914Z" fill="#B6E3FF"/>
<path d="M72.401 113.983C71.7219 115.256 68.4961 115.044 71.0852 118.058C68.7932 115.172 66.7134 116.827 64.5487 117.549C62.9358 118.1 61.4502 119.161 59.1582 118.864C63.8696 117.124 68.1141 115.554 72.401 113.983Z" fill="#B6E3FF"/>
<path d="M91.6709 99.9338C96.4247 100.146 100.966 99.3396 105.253 97.2598C101.094 99.9338 96.5945 101.037 91.6709 99.9338Z" fill="#B6E3FF"/>
<path d="M90.5674 99.849L90.6523 99.8065C90.6523 99.8065 90.6098 99.849 90.6098 99.8914L90.5674 99.849Z" fill="#D8D8D8"/>
<path d="M117.944 64.0255C110.813 59.0595 102.367 58.5077 97.2311 64.7046C95.4484 64.068 93.6233 64.068 91.8406 64.7046C86.7048 58.5077 78.2582 59.0595 71.1275 64.0255C70.8304 64.2378 70.6182 64.6198 70.6182 65.0018V67.7182C70.6182 68.0578 70.7455 68.3973 71.0426 68.6096C78.6827 75.2734 88.7421 74.849 91.8406 67.4636C92.7319 65.4262 96.2124 65.3838 97.2311 67.4636C100.372 74.8065 110.389 75.231 118.029 68.6096C118.284 68.3973 118.453 68.0578 118.453 67.7182V65.0018C118.453 64.6198 118.284 64.2378 117.944 64.0255Z" fill="#002155"/>
<path d="M76.6027 68.3125C78.7249 72.0052 87.0441 72.7267 89.2088 68.1002C89.5484 67.3787 89.5484 66.5722 89.2088 65.8507C87.0441 61.2242 78.7674 61.9457 76.6027 65.6384C76.0934 66.4873 76.0934 67.506 76.6027 68.3125Z" fill="#80CCFF"/>
<path d="M82.1205 72.5569C78.5126 72.5569 75.1595 71.0289 73.8437 68.6944C73.207 67.6333 73.207 66.3175 73.8437 65.2139C75.2444 62.7946 78.8946 61.2241 82.6722 61.3514C86.0678 61.5212 88.6994 63.0068 89.8454 65.4686C90.2699 66.3599 90.2699 67.4635 89.8454 68.3973C88.6994 70.8591 86.0678 72.3871 82.6722 72.5144C82.5025 72.5569 82.2902 72.5569 82.1205 72.5569ZM82.1205 61.6061C78.5975 61.6061 75.3293 63.0917 74.0135 65.3413C73.4193 66.3599 73.4193 67.5908 74.0135 68.6095C75.3717 70.9864 78.9371 72.5144 82.6722 72.3447C86.0254 72.2173 88.5721 70.7318 89.6756 68.3548C90.0576 67.5059 90.0576 66.4873 89.6756 65.6384C88.5721 63.219 85.9829 61.7759 82.6722 61.6486C82.5025 61.6061 82.2902 61.6061 82.1205 61.6061Z" fill="white"/>
<path d="M112.468 68.3125C110.304 72.0052 102.027 72.7267 99.8621 68.1002C99.5225 67.3787 99.5225 66.5722 99.8621 65.8507C102.027 61.2242 110.304 61.9457 112.468 65.6384C112.978 66.4873 112.978 67.506 112.468 68.3125Z" fill="#80CCFF"/>
<path d="M106.951 72.5569C106.781 72.5569 106.569 72.5569 106.399 72.5569C103.003 72.3871 100.372 70.9015 99.2256 68.4397C98.8011 67.5484 98.8011 66.4448 99.2256 65.511C100.372 63.0492 103.003 61.5212 106.399 61.3939C110.176 61.2241 113.827 62.7946 115.227 65.2564C115.864 66.3175 115.864 67.6333 115.227 68.7368C113.869 71.0288 110.516 72.5569 106.951 72.5569ZM106.951 61.6061C106.781 61.6061 106.611 61.6061 106.399 61.6061C103.046 61.7334 100.499 63.219 99.3953 65.5959C99.0133 66.4448 99.0133 67.4635 99.3953 68.3124C100.499 70.7317 103.088 72.1749 106.399 72.3022C110.134 72.472 113.657 70.944 115.057 68.567C115.652 67.5484 115.652 66.3175 115.057 65.2988C113.742 63.0917 110.473 61.6061 106.951 61.6061Z" fill="white"/>
<path d="M70.9575 67.8456H69.2173C69.2173 67.2938 69.1748 66.6996 69.1748 66.1053C69.1748 65.7233 69.1748 65.2989 69.2173 64.9169C69.8115 64.9169 70.3633 64.9169 70.9575 64.9169C71.1273 64.9169 71.297 65.0442 71.297 65.2564V67.5484C71.297 67.6758 71.1697 67.8456 70.9575 67.8456Z" fill="#80CCFF"/>
<path d="M118.284 67.8456H120.024C120.067 67.3787 120.067 66.8693 120.067 66.3176C120.067 65.8082 120.024 65.3413 120.024 64.9169C119.43 64.9169 118.878 64.9169 118.284 64.9169C118.114 64.9169 117.944 65.0442 117.944 65.2564V67.5484C117.944 67.6758 118.072 67.8456 118.284 67.8456Z" fill="#80CCFF"/>
<path d="M89.2085 68.1002C89.548 67.3787 89.548 66.5722 89.2085 65.8507C88.02 63.3464 85.0064 62.4126 82.2051 62.6673L87.3834 70.1376C88.1474 69.6707 88.784 68.9916 89.2085 68.1002Z" fill="white"/>
<path d="M112.468 68.3125C112.935 67.506 112.935 66.4873 112.468 65.6384C111.238 63.5586 108.097 62.4126 105.168 62.6673L110.389 70.2225C111.28 69.7556 112.002 69.0765 112.468 68.3125Z" fill="white"/>
<defs>
<filter id="filter0_dd_1937_2200" x="0" y="0" width="192" height="192" filterUnits="userSpaceOnUse" color-interpolation-filters="sRGB">
<feFlood flood-opacity="0" result="BackgroundImageFix"/>
<feColorMatrix in="SourceAlpha" type="matrix" values="0 0 0 0 0 0 0 0 0 0 0 0 0 0 0 0 0 0 127 0" result="hardAlpha"/>
<feMorphology radius="2" operator="erode" in="SourceAlpha" result="effect1_dropShadow_1937_2200"/>
<feOffset dy="2"/>
<feGaussianBlur stdDeviation="2"/>
<feComposite in2="hardAlpha" operator="out"/>
<feColorMatrix type="matrix" values="0 0 0 0 0 0 0 0 0 0 0 0 0 0 0 0 0 0 0.06 0"/>
<feBlend mode="normal" in2="BackgroundImageFix" result="effect1_dropShadow_1937_2200"/>
<feColorMatrix in="SourceAlpha" type="matrix" values="0 0 0 0 0 0 0 0 0 0 0 0 0 0 0 0 0 0 127 0" result="hardAlpha"/>
<feMorphology radius="2" operator="erode" in="SourceAlpha" result="effect2_dropShadow_1937_2200"/>
<feOffset dy="4"/>
<feGaussianBlur stdDeviation="4"/>
<feComposite in2="hardAlpha" operator="out"/>
<feColorMatrix type="matrix" values="0 0 0 0 0 0 0 0 0 0 0 0 0 0 0 0 0 0 0.1 0"/>
<feBlend mode="normal" in2="effect1_dropShadow_1937_2200" result="effect2_dropShadow_1937_2200"/>
<feBlend mode="normal" in="SourceGraphic" in2="effect2_dropShadow_1937_2200" result="shape"/>
</filter>
</defs>
</svg>
