<svg width="150" height="161" viewBox="0 0 150 161" fill="none" xmlns="http://www.w3.org/2000/svg">
<path d="M150 84.8359C150 102.38 144.036 118.552 134.067 131.378C132.022 134.037 129.764 136.525 127.379 138.885C127.208 139.099 126.995 139.271 126.782 139.485C126.697 139.571 126.612 139.657 126.527 139.7C113.32 152.311 95.5126 160.118 75.9159 160.333C75.7455 160.333 75.6177 160.333 75.4473 160.333H74.5101C74.3397 160.333 74.2119 160.333 74.0415 160.333C54.4448 160.075 36.6373 152.268 23.4308 139.7C23.3456 139.614 23.2604 139.571 23.2178 139.485C23.0048 139.271 22.7918 139.099 22.6214 138.885C19.8949 136.182 17.3388 133.308 15.0383 130.22C5.58081 117.565 0 101.866 0 84.8359C0 43.1412 33.57 9.33923 74.9787 9.33923C116.43 9.33923 150 43.1412 150 84.8359Z" fill="#B6E3FF"/>
<path d="M124.246 106.393C125.911 108.955 129.454 112.028 132.656 113.395C125.783 104.301 124.715 91.3651 124.587 79.9661C125.911 82.5704 127.704 84.8331 129.796 86.4554C126.423 78.8988 121.471 67.8413 122.154 59.1747C123.776 61.5228 126.636 62.4194 129.07 63.3159C124.971 56.1435 123.52 46.4095 121.641 38.2125C118.141 22.715 111.31 10.5475 97.4772 3.247C90.3048 -0.55267 81.7235 -0.68075 74.9353 3.11892C68.1472 -0.68075 59.5659 -0.55267 52.3935 3.247C38.6037 10.5048 31.7301 22.715 28.2293 38.2125C26.3935 46.4095 24.942 56.1435 20.8008 63.3159C23.2343 62.4194 26.0947 61.5228 27.717 59.1747C28.4428 67.8413 23.4904 78.8561 20.075 86.4554C22.1669 84.8758 23.96 82.5704 25.2835 79.9661C25.1128 91.3651 24.0454 104.301 17.1719 113.395C20.3738 111.986 23.96 108.955 25.5824 106.393C26.1374 111.986 22.5939 115.785 22.1243 120.738C23.7466 120.226 25.5824 119.628 27.5462 118.945C37.2375 115.657 47.9534 108.485 49.6612 107.29C51.497 103.703 52.7777 97.2141 53.5462 91.7921C54.6562 93.5425 56.3639 95.976 58.9682 98.3668C61.8286 101.014 67.5068 106.265 75.4904 106.137C81.5527 106.051 85.9074 102.892 87.9994 101.398C92.6102 98.0679 95.0437 94.0548 96.1537 91.7921C96.9222 97.2567 98.203 103.746 100.039 107.29C101.746 108.442 112.505 115.615 122.154 118.945C124.118 119.628 125.911 120.183 127.576 120.738C127.234 115.785 123.691 111.986 124.246 106.393Z" fill="#033D8B"/>
<path d="M134.149 131.582C132.1 134.229 129.837 136.705 127.446 139.053C127.276 139.266 127.062 139.437 126.849 139.651C126.763 139.736 126.678 139.821 126.593 139.864C113.358 152.416 95.5121 160.186 75.8734 160.399C75.7026 160.399 75.5745 160.399 75.4037 160.399C75.233 160.399 75.1049 160.399 74.9341 160.399C74.7633 160.399 74.6353 160.399 74.4645 160.399C74.2937 160.399 74.1657 160.399 73.9949 160.399C54.3562 160.143 36.5105 152.373 23.2757 139.864C23.1903 139.779 23.105 139.736 23.0623 139.651C22.8488 139.437 22.6353 139.266 22.4646 139.053C19.7322 136.363 17.1707 133.503 14.8652 130.429C18.1953 128.721 22.8488 127.526 29.5089 125.135C33.4793 123.726 37.5779 121.677 41.1214 119.628L41.2921 119.542L42.8291 118.646C42.8291 118.646 48.5926 116.511 51.4103 112.797C52.4777 111.388 52.99 109.424 53.9292 105.582C54.8258 101.867 55.2954 98.7082 55.5089 96.5736C56.3627 97.5128 57.6008 98.8363 59.2231 100.202C61.9555 102.551 65.499 105.582 70.366 106.82C80.4842 109.424 89.1936 102.337 89.7059 101.91C92.0113 99.989 93.5055 97.9397 94.3594 96.5309C94.5302 100.416 95.2986 103.49 95.939 105.539C96.921 108.656 97.9456 111.858 100.806 114.718C103.026 116.938 105.46 118.048 106.954 118.603L106.996 118.646L108.533 119.542C112.461 121.421 116.389 123.299 120.317 125.135C125.013 127.27 129.581 129.447 134.149 131.582Z" fill="#033D8B"/>
<path d="M102.173 64.81V67.7131C102.173 67.7558 102.173 67.7985 102.173 67.8412C102.13 68.14 102.002 68.4389 101.746 68.6523C93.5489 75.7821 82.7903 75.3124 79.4602 67.4569C78.3502 65.2369 74.636 65.2796 73.654 67.4569C70.324 75.3551 59.5227 75.7821 51.3683 68.6523C51.1122 68.4389 50.9841 68.14 50.9414 67.8412C50.9414 67.7985 50.9414 67.7558 50.9414 67.7131V64.81C50.9414 64.7673 50.9414 64.7246 50.9414 64.6819C50.9841 64.2977 51.1549 63.9561 51.4964 63.7427C59.1384 58.4487 68.1893 57.851 73.6967 64.4684C75.6179 63.7853 77.5818 63.7853 79.5029 64.4684C85.0103 57.851 94.0612 58.4487 101.703 63.7427C102.002 63.9561 102.216 64.2977 102.258 64.6819C102.173 64.7246 102.173 64.7673 102.173 64.81Z" fill="#002155"/>
<path d="M57.3042 68.3536C59.6096 72.2814 68.4897 73.0925 70.7951 68.1402C71.1367 67.3717 71.1367 66.5178 70.7951 65.7493C68.447 60.797 59.6096 61.5654 57.3042 65.5359C56.7918 66.3897 56.7918 67.4571 57.3042 68.3536Z" fill="#80CCFF"/>
<path d="M71.5208 65.3651C70.2827 62.7181 67.465 61.0958 63.8361 60.9677C59.7803 60.7969 55.8952 62.4619 54.401 65.0662C54.0594 65.6212 53.8887 66.3043 53.8887 66.9447C53.8887 67.5851 54.0594 68.2255 54.401 68.7805C55.8525 71.2567 59.4387 72.9217 63.2811 72.9217C63.4946 72.9217 63.6653 72.9217 63.8788 72.9217C67.5504 72.7509 70.3254 71.1286 71.5635 68.5243C71.9905 67.4997 71.9904 66.347 71.5208 65.3651ZM71.3074 68.3963C70.112 70.9578 67.3796 72.5375 63.7934 72.7082C63.5799 72.7082 63.4092 72.7082 63.1957 72.7082C59.4387 72.7082 55.8952 71.0859 54.5291 68.6951C53.8887 67.6278 53.8887 66.2616 54.5291 65.1943C55.9379 62.7608 59.4387 61.1812 63.1957 61.1812C63.4092 61.1812 63.5799 61.1812 63.7934 61.1812C67.3796 61.3519 70.112 62.8889 71.3074 65.4504C71.777 66.3897 71.777 67.457 71.3074 68.3963Z" fill="white"/>
<path d="M95.7705 68.3536C93.4651 72.2814 84.585 73.0925 82.2796 68.1402C81.9381 67.3717 81.9381 66.5178 82.2796 65.7493C84.6277 60.797 93.4651 61.5654 95.7705 65.5359C96.2829 66.3897 96.2829 67.4571 95.7705 68.3536Z" fill="#80CCFF"/>
<path d="M98.714 65.0663C97.2197 62.462 93.3347 60.7543 89.2362 60.9678C85.6073 61.1386 82.7895 62.7182 81.5514 65.3652C81.0818 66.3471 81.0818 67.4998 81.5514 68.4817C82.7895 71.1287 85.6073 72.751 89.2362 72.8791C89.4496 72.8791 89.6204 72.8791 89.8339 72.8791C91.755 72.8791 93.6335 72.4522 95.1705 71.7264C96.7501 71.0006 97.9882 69.976 98.714 68.7379C99.3544 67.6279 99.3544 66.219 98.714 65.0663ZM98.5005 68.6525C97.049 71.1714 93.2066 72.8364 89.2362 72.6656C85.65 72.4949 82.9176 70.9579 81.7222 68.3537C81.2953 67.4144 81.2953 66.3471 81.7222 65.4079C82.9176 62.8463 85.65 61.2666 89.2362 61.1386C89.4496 61.1386 89.6204 61.1386 89.8339 61.1386C93.5908 61.1386 97.1343 62.7609 98.5005 65.1517C99.1409 66.2617 99.1409 67.5852 98.5005 68.6525Z" fill="white"/>
<path d="M51.6256 65.066V67.4995C51.6256 67.713 51.4548 67.8411 51.284 67.8411H50.8998H50.0032L49.4482 64.7245H51.3267C51.4975 64.6818 51.6256 64.8526 51.6256 65.066Z" fill="#80CCFF"/>
<path d="M103.839 64.6821L103.242 67.8414H102.217H102.004C101.79 67.8414 101.662 67.6706 101.662 67.4999V65.0664C101.662 64.8529 101.833 64.7248 102.004 64.7248H103.839V64.6821Z" fill="#80CCFF"/>
<path d="M70.7952 68.14C71.1367 67.3716 71.1367 66.5177 70.7952 65.7492C69.5144 63.0596 66.3124 62.0776 63.2812 62.3338L68.8313 70.3601C69.6852 69.8051 70.3683 69.0793 70.7952 68.14Z" fill="white"/>
<path d="M95.7698 68.3537C96.2822 67.4999 96.2822 66.3898 95.7698 65.4933C94.4891 63.2733 91.0736 62.0352 87.957 62.2913L93.5498 70.403C94.489 69.8907 95.2575 69.2076 95.7698 68.3537Z" fill="white"/>
</svg>
